<svg width="29" height="28" viewBox="0 0 29 28" fill="none" xmlns="http://www.w3.org/2000/svg">
<path d="M28.0085 27.5H0.991453C0.724069 27.5 0.5 27.2802 0.5 27V20.8251C0.5 20.6682 0.576489 20.5182 0.698414 20.4285C12.6944 11.6039 23.8931 16.5695 28.3473 20.4148C28.4413 20.496 28.5 20.6213 28.5 20.7684V27C28.5 27.2802 28.2759 27.5 28.0085 27.5ZM20.3205 6.5C20.3205 9.81776 17.6551 12.5 14.3761 12.5C11.0971 12.5 8.43162 9.81776 8.43162 6.5C8.43162 3.18224 11.0971 0.5 14.3761 0.5C17.6551 0.5 20.3205 3.18224 20.3205 6.5Z" stroke="#191919"/>
</svg>
