<svg width="30" height="33" viewBox="0 0 30 33" fill="none" xmlns="http://www.w3.org/2000/svg">
<path d="M9.11111 6.16667C9.11111 6.44281 9.33497 6.66667 9.61111 6.66667C9.88725 6.66667 10.1111 6.44281 10.1111 6.16667H9.11111ZM10.1111 1C10.1111 0.723858 9.88725 0.5 9.61111 0.5C9.33497 0.5 9.11111 0.723858 9.11111 1H10.1111ZM19.4444 6.16667C19.4444 6.44281 19.6683 6.66667 19.9444 6.66667C20.2206 6.66667 20.4444 6.44281 20.4444 6.16667H19.4444ZM20.4444 1C20.4444 0.723858 20.2206 0.5 19.9444 0.5C19.6683 0.5 19.4444 0.723858 19.4444 1H20.4444ZM2.72222 4.94444H26.8333V3.94444H2.72222V4.94444ZM28.0556 6.16667V30.2778H29.0556V6.16667H28.0556ZM26.8333 31.5H2.72222V32.5H26.8333V31.5ZM1.5 30.2778V6.16667H0.5V30.2778H1.5ZM2.72222 31.5C2.04721 31.5 1.5 30.9528 1.5 30.2778H0.5C0.5 31.5051 1.49492 32.5 2.72222 32.5V31.5ZM28.0556 30.2778C28.0556 30.9528 27.5084 31.5 26.8333 31.5V32.5C28.0606 32.5 29.0556 31.5051 29.0556 30.2778H28.0556ZM26.8333 4.94444C27.5084 4.94444 28.0556 5.49165 28.0556 6.16667H29.0556C29.0556 4.93937 28.0606 3.94444 26.8333 3.94444V4.94444ZM2.72222 3.94444C1.49492 3.94444 0.5 4.93937 0.5 6.16667H1.5C1.5 5.49165 2.04721 4.94444 2.72222 4.94444V3.94444ZM7.88889 19.4444C7.21387 19.4444 6.66667 18.8972 6.66667 18.2222H5.66667C5.66667 19.4495 6.66159 20.4444 7.88889 20.4444V19.4444ZM9.11111 18.2222C9.11111 18.8972 8.5639 19.4444 7.88889 19.4444V20.4444C9.11619 20.4444 10.1111 19.4495 10.1111 18.2222H9.11111ZM7.88889 17C8.5639 17 9.11111 17.5472 9.11111 18.2222H10.1111C10.1111 16.9949 9.11619 16 7.88889 16V17ZM7.88889 16C6.66159 16 5.66667 16.9949 5.66667 18.2222H6.66667C6.66667 17.5472 7.21387 17 7.88889 17V16ZM7.88889 26.3333C7.21387 26.3333 6.66667 25.7861 6.66667 25.1111H5.66667C5.66667 26.3384 6.66159 27.3333 7.88889 27.3333V26.3333ZM9.11111 25.1111C9.11111 25.7861 8.5639 26.3333 7.88889 26.3333V27.3333C9.11619 27.3333 10.1111 26.3384 10.1111 25.1111H9.11111ZM7.88889 23.8889C8.5639 23.8889 9.11111 24.4361 9.11111 25.1111H10.1111C10.1111 23.8838 9.11619 22.8889 7.88889 22.8889V23.8889ZM7.88889 22.8889C6.66159 22.8889 5.66667 23.8838 5.66667 25.1111H6.66667C6.66667 24.4361 7.21387 23.8889 7.88889 23.8889V22.8889ZM14.7778 19.4444C14.1028 19.4444 13.5556 18.8972 13.5556 18.2222H12.5556C12.5556 19.4495 13.5505 20.4444 14.7778 20.4444V19.4444ZM16 18.2222C16 18.8972 15.4528 19.4444 14.7778 19.4444V20.4444C16.0051 20.4444 17 19.4495 17 18.2222H16ZM14.7778 17C15.4528 17 16 17.5472 16 18.2222H17C17 16.9949 16.0051 16 14.7778 16V17ZM14.7778 16C13.5505 16 12.5556 16.9949 12.5556 18.2222H13.5556C13.5556 17.5472 14.1028 17 14.7778 17V16ZM14.7778 26.3333C14.1028 26.3333 13.5556 25.7861 13.5556 25.1111H12.5556C12.5556 26.3384 13.5505 27.3333 14.7778 27.3333V26.3333ZM16 25.1111C16 25.7861 15.4528 26.3333 14.7778 26.3333V27.3333C16.0051 27.3333 17 26.3384 17 25.1111H16ZM14.7778 23.8889C15.4528 23.8889 16 24.4361 16 25.1111H17C17 23.8838 16.0051 22.8889 14.7778 22.8889V23.8889ZM14.7778 22.8889C13.5505 22.8889 12.5556 23.8838 12.5556 25.1111H13.5556C13.5556 24.4361 14.1028 23.8889 14.7778 23.8889V22.8889ZM21.6667 19.4444C20.9917 19.4444 20.4444 18.8972 20.4444 18.2222H19.4444C19.4444 19.4495 20.4394 20.4444 21.6667 20.4444V19.4444ZM22.8889 18.2222C22.8889 18.8972 22.3417 19.4444 21.6667 19.4444V20.4444C22.894 20.4444 23.8889 19.4495 23.8889 18.2222H22.8889ZM21.6667 17C22.3417 17 22.8889 17.5472 22.8889 18.2222H23.8889C23.8889 16.9949 22.894 16 21.6667 16V17ZM21.6667 16C20.4394 16 19.4444 16.9949 19.4444 18.2222H20.4444C20.4444 17.5472 20.9917 17 21.6667 17V16ZM21.6667 26.3333C20.9917 26.3333 20.4444 25.7861 20.4444 25.1111H19.4444C19.4444 26.3384 20.4394 27.3333 21.6667 27.3333V26.3333ZM22.8889 25.1111C22.8889 25.7861 22.3417 26.3333 21.6667 26.3333V27.3333C22.894 27.3333 23.8889 26.3384 23.8889 25.1111H22.8889ZM21.6667 23.8889C22.3417 23.8889 22.8889 24.4361 22.8889 25.1111H23.8889C23.8889 23.8838 22.894 22.8889 21.6667 22.8889V23.8889ZM21.6667 22.8889C20.4394 22.8889 19.4444 23.8838 19.4444 25.1111H20.4444C20.4444 24.4361 20.9917 23.8889 21.6667 23.8889V22.8889ZM1 11.8333L28.5556 11.8333V10.8333L1 10.8333L1 11.8333ZM10.1111 6.16667V1H9.11111V6.16667H10.1111ZM20.4444 6.16667V1H19.4444V6.16667H20.4444Z" fill="#191919"/>
</svg>
