<svg width="11" height="29" viewBox="0 0 11 29" fill="none" xmlns="http://www.w3.org/2000/svg">
<path d="M7.65385 1.00007C7.65385 0.808892 7.80882 0.653913 8 0.653913C8.19118 0.653913 8.34615 0.808892 8.34615 1.00007H7.65385ZM8.24477 28.2448C8.10959 28.3799 7.89041 28.3799 7.75523 28.2448L5.55232 26.0419C5.41714 25.9067 5.41714 25.6875 5.55232 25.5523C5.6875 25.4171 5.90668 25.4171 6.04186 25.5523L8 27.5105L9.95814 25.5523C10.0933 25.4171 10.3125 25.4171 10.4477 25.5523C10.5829 25.6875 10.5829 25.9067 10.4477 26.0419L8.24477 28.2448ZM3.34615 27.9999C3.34615 28.1911 3.19118 28.3461 3 28.3461C2.80882 28.3461 2.65385 28.1911 2.65385 27.9999H3.34615ZM2.75523 0.755232C2.89041 0.620051 3.10959 0.620051 3.24477 0.755232L5.44768 2.95814C5.58286 3.09332 5.58286 3.3125 5.44768 3.44768C5.3125 3.58286 5.09332 3.58286 4.95814 3.44768L3 1.48954L1.04186 3.44768C0.906677 3.58286 0.687504 3.58286 0.552322 3.44768C0.417141 3.3125 0.417141 3.09332 0.552322 2.95814L2.75523 0.755232ZM8.34615 1.00007V28H7.65385V1.00007H8.34615ZM2.65385 27.9999V1H3.34615V27.9999H2.65385Z" fill="#191919"/>
</svg>
