<svg width="24" height="27" viewBox="0 0 24 27" fill="none" xmlns="http://www.w3.org/2000/svg">
<path fill-rule="evenodd" clip-rule="evenodd" d="M9.99266 2.21945C10.2717 0.930085 11.0649 0 11.9999 0C12.9348 0 13.7281 0.930068 14.0071 2.21942C17.1384 2.62227 19.7206 5.03503 20.3398 8.26839L22.4792 19.44L23.8787 22.1804C24.2459 22.8995 23.7353 23.76 22.9415 23.76H1.05854C0.264719 23.76 -0.245874 22.8995 0.12132 22.1804L1.52081 19.44L3.66023 8.26839C4.27942 5.03512 6.8615 2.62241 9.99266 2.21945ZM13.0777 3.24H10.9223C7.93103 3.24 5.3184 5.40779 4.73205 8.46956L2.59262 19.6412C2.57358 19.7406 2.5405 19.8369 2.49437 19.9273L1.09488 22.6677C1.09195 22.6734 1.09113 22.6772 1.09113 22.6772L1.09092 22.6798L22.9091 22.68L22.9089 22.6772C22.9089 22.6772 22.908 22.6734 22.9051 22.6677L21.5056 19.9273C21.4595 19.8369 21.4264 19.7406 21.4074 19.6412L19.268 8.46957C18.6816 5.40779 16.069 3.24 13.0777 3.24ZM11.1346 2.16H12.8651C12.7887 1.91603 12.6895 1.70504 12.5785 1.53502C12.3187 1.1368 12.0892 1.08 11.9999 1.08C11.9105 1.08 11.6811 1.1368 11.4212 1.53502C11.3103 1.70504 11.211 1.91603 11.1346 2.16Z" fill="#191919"/>
<path d="M9.81818 23.76H8.72727C8.72727 25.5494 10.1925 27 12 27C13.8075 27 15.2727 25.5494 15.2727 23.76H14.1818C14.1818 24.9529 13.205 25.92 12 25.92C10.795 25.92 9.81818 24.9529 9.81818 23.76Z" fill="#191919"/>
</svg>
