<svg width="27" height="27" viewBox="0 0 27 27" fill="none" xmlns="http://www.w3.org/2000/svg">
<path d="M0.5 1.17391C0.5 0.801721 0.801721 0.5 1.17391 0.5H11.7391C12.1113 0.5 12.413 0.801721 12.413 1.17391V11.7391C12.413 12.1113 12.1113 12.413 11.7391 12.413H1.17391C0.801721 12.413 0.5 12.1113 0.5 11.7391V1.17391ZM0.5 15.2609C0.5 14.8887 0.801721 14.587 1.17391 14.587H11.7391C12.1113 14.587 12.413 14.8887 12.413 15.2609V25.8261C12.413 26.1983 12.1113 26.5 11.7391 26.5H1.17391C0.801721 26.5 0.5 26.1983 0.5 25.8261V15.2609ZM14.587 1.17391C14.587 0.801721 14.8887 0.5 15.2609 0.5H25.8261C26.1983 0.5 26.5 0.801722 26.5 1.17391V11.7391C26.5 12.1113 26.1983 12.413 25.8261 12.413H15.2609C14.8887 12.413 14.587 12.1113 14.587 11.7391V1.17391ZM14.587 15.2609C14.587 14.8887 14.8887 14.587 15.2609 14.587H25.8261C26.1983 14.587 26.5 14.8887 26.5 15.2609V25.8261C26.5 26.1983 26.1983 26.5 25.8261 26.5H15.2609C14.8887 26.5 14.587 26.1983 14.587 25.8261V15.2609Z" stroke="#191919"/>
</svg>
