<svg width="32" height="29" viewBox="0 0 32 29" fill="none" xmlns="http://www.w3.org/2000/svg">
<path d="M2 16.1875L16.5 1L31 16.1875M5.22222 12.8125V26.3125C5.22222 26.7601 5.39196 27.1893 5.69411 27.5057C5.99625 27.8222 6.40604 28 6.83333 28H11.6667C12.094 28 12.5038 27.8222 12.8059 27.5057C13.108 27.1893 13.2778 26.7601 13.2778 26.3125V19.5625C13.2778 19.1149 13.4475 18.6857 13.7497 18.3693C14.0518 18.0528 14.4616 17.875 14.8889 17.875H18.1111C18.5384 17.875 18.9482 18.0528 19.2503 18.3693C19.5525 18.6857 19.7222 19.1149 19.7222 19.5625V26.3125C19.7222 26.7601 19.892 27.1893 20.1941 27.5057C20.4962 27.8222 20.906 28 21.3333 28H26.1667C26.594 28 27.0038 27.8222 27.3059 27.5057C27.608 27.1893 27.7778 26.7601 27.7778 26.3125V12.8125" stroke="#191919" stroke-width="1.14286" stroke-linecap="round" stroke-linejoin="round"/>
</svg>
