<svg width="26" height="26" viewBox="0 0 26 26" fill="none" xmlns="http://www.w3.org/2000/svg">
<g clip-path="url(#clip0_1_2170)">
<path d="M13 0C5.83968 0 0 5.83968 0 13C0 20.1603 5.83968 26 13 26C20.1603 26 26 20.1603 26 13C26 5.83968 20.1603 0 13 0ZM13 25.037C6.74762 25.037 0.962963 19.2524 0.962963 13C0.962963 6.74762 6.74762 0.962963 13 0.962963C19.2524 0.962963 25.037 6.74762 25.037 13C25.037 19.2524 19.2524 25.037 13 25.037Z" fill="#191919"/>
<path d="M12.963 8.70376C13.4948 8.70376 13.9259 8.27262 13.9259 7.7408C13.9259 7.20897 13.4948 6.77783 12.963 6.77783C12.4311 6.77783 12 7.20897 12 7.7408C12 8.27262 12.4311 8.70376 12.963 8.70376Z" fill="#191919"/>
<path d="M13.463 10.1482C13.463 9.87206 13.2391 9.6482 12.963 9.6482C12.6868 9.6482 12.463 9.87206 12.463 10.1482V18.8149C12.463 19.091 12.6868 19.3149 12.963 19.3149C13.2391 19.3149 13.463 19.091 13.463 18.8149V10.1482Z" fill="#191919"/>
</g>
<defs>
<clipPath id="clip0_1_2170">
<rect width="26" height="26" fill="white"/>
</clipPath>
</defs>
</svg>
