<svg width="27" height="27" viewBox="0 0 27 27" fill="none" xmlns="http://www.w3.org/2000/svg">
<path d="M14 0.5C14 0.223858 13.7761 0 13.5 0C13.2239 0 13 0.223858 13 0.5V3.5C13 3.77614 13.2239 4 13.5 4C13.7761 4 14 3.77614 14 3.5V0.5Z" fill="#191919"/>
<path fill-rule="evenodd" clip-rule="evenodd" d="M13.5 5.5C17.9183 5.5 21.5 9.08172 21.5 13.5C21.5 17.9183 17.9183 21.5 13.5 21.5C11.0299 21.5 8.82122 20.3805 7.35374 18.6212C6.2619 17.4101 5.5 15.7462 5.5 13.5C5.5 11.2538 6.2619 9.58996 7.35373 8.37881C8.82122 6.6195 11.0299 5.5 13.5 5.5ZM20.5 13.5C20.5 17.366 17.366 20.5 13.5 20.5V6.5C17.366 6.5 20.5 9.63401 20.5 13.5Z" fill="#191919"/>
<path d="M23 13.5C23 13.2239 23.2239 13 23.5 13H26.5C26.7761 13 27 13.2239 27 13.5C27 13.7761 26.7761 14 26.5 14H23.5C23.2239 14 23 13.7761 23 13.5Z" fill="#191919"/>
<path d="M0.5 13C0.223858 13 0 13.2239 0 13.5C0 13.7761 0.223858 14 0.5 14H3.5C3.77614 14 4 13.7761 4 13.5C4 13.2239 3.77614 13 3.5 13H0.5Z" fill="#191919"/>
<path d="M3.14645 4.14645C3.34171 3.95118 3.65829 3.95118 3.85355 4.14645L5.97487 6.26777C6.17014 6.46303 6.17014 6.77961 5.97487 6.97487C5.77961 7.17014 5.46303 7.17014 5.26777 6.97487L3.14645 4.85355C2.95118 4.65829 2.95118 4.34171 3.14645 4.14645Z" fill="#191919"/>
<path d="M23.9749 22.2678L21.8536 20.1464C21.6583 19.9512 21.3417 19.9512 21.1464 20.1464C20.9512 20.3417 20.9512 20.6583 21.1464 20.8536L23.2678 22.9749C23.463 23.1701 23.7796 23.1701 23.9749 22.9749C24.1701 22.7796 24.1701 22.463 23.9749 22.2678Z" fill="#191919"/>
<path d="M21.1464 6.85355C20.9512 6.65829 20.9512 6.34171 21.1464 6.14645L23.2678 4.02513C23.463 3.82986 23.7796 3.82986 23.9749 4.02513C24.1701 4.22039 24.1701 4.53697 23.9749 4.73223L21.8536 6.85355C21.6583 7.04882 21.3417 7.04882 21.1464 6.85355Z" fill="#191919"/>
<path d="M3.14645 22.1464C2.95118 22.3417 2.95118 22.6583 3.14645 22.8536C3.34171 23.0488 3.65829 23.0488 3.85355 22.8536L5.97487 20.7322C6.17014 20.537 6.17014 20.2204 5.97487 20.0251C5.77961 19.8299 5.46303 19.8299 5.26777 20.0251L3.14645 22.1464Z" fill="#191919"/>
<path d="M13.5 23C13.7761 23 14 23.2239 14 23.5V26.5C14 26.7761 13.7761 27 13.5 27C13.2239 27 13 26.7761 13 26.5V23.5C13 23.2239 13.2239 23 13.5 23Z" fill="#191919"/>
</svg>
